<svg width="180" height="180" viewBox="0 0 180 180" fill="none" xmlns="http://www.w3.org/2000/svg">
<g clip-path="url(#clip0_1424_39)">
<g clip-path="url(#clip1_1424_39)">
<path d="M134.147 30.2268C136.825 29.9823 148.013 35.6954 148.744 38.6016C149.27 40.6916 149.048 46.0639 149.046 48.5316L149.052 63.4563C149.055 69.729 149.029 75.99 149.147 82.2612C149.039 85.451 147.429 85.8206 144.785 84.6884C141.894 83.398 139.329 81.9441 136.428 80.6144C133.38 79.2168 129.875 78.1085 126.963 76.4424C126.264 75.9151 125.98 74.4808 125.934 73.7133C125.636 68.7335 126.232 63.2891 125.801 58.3593C123.908 59.0289 121.39 60.3525 119.515 61.28C115.743 63.1494 111.983 65.0449 108.237 66.9665C104.14 69.04 97.3627 72.0726 93.6584 74.3604C95.9041 75.655 98.8797 76.8272 101.301 77.8365L113.39 82.796C119.652 85.3833 146.486 96.1416 148.583 101.45C148.909 102.277 148.983 103.264 149.021 104.144C149.311 111.053 149.039 118.051 149.045 124.972L149.085 136.218C149.132 147.333 149.653 145.386 139.879 150.573L126.159 157.864C119.345 161.475 112.643 165.224 105.684 168.568C96.0408 173.202 98.0048 174.053 88.3587 169.43C85.0553 167.968 81.7907 166.168 78.5421 164.577C74.0146 162.361 69.501 160.075 65.2758 157.317C63.74 156.314 63.264 154.967 63.1505 153.194C62.9308 150.809 63.5593 148.212 65.8147 146.986C73.4406 142.837 81.1902 138.916 88.8014 134.738C90.5191 133.795 92.2913 132.898 94.0221 132.011C99.5128 129.198 99.092 133.724 99.1282 137.478C99.1304 139.911 99.1641 142.343 99.2298 144.775C100.356 144.473 102.036 143.506 103.109 142.962C105.508 141.751 107.875 140.429 110.269 139.205C113.659 137.515 117.038 135.803 120.405 134.067C121.896 133.303 124.221 132.194 125.517 131.332C125.822 126.038 125.376 120.22 125.495 114.882C125.513 114.049 124.619 113.567 123.942 113.209C119.128 110.675 113.967 108.831 108.984 106.661C94.3401 100.179 79.0108 94.5649 65.3544 86.1299C62.7024 84.4918 63.8055 78.7552 63.6363 76.0402C63.5196 74.1696 63.5982 71.3093 63.7973 69.3959C64.3704 65.7984 70.1818 63.6714 73.0846 62.1081L81.3026 57.6242L105.687 44.6246C113.329 40.5966 120.937 36.5179 128.565 32.4669C130.254 31.57 132.242 30.4126 134.147 30.2268ZM96.4048 149.563C95.9239 144.648 96.4815 139.158 96.0928 134.369C94.1319 134.937 91.682 136.415 89.8151 137.427L81.5994 141.862C77.0637 144.28 72.4387 146.542 67.9381 149.028C67.5431 149.245 66.6898 149.87 66.4968 150.261C65.9258 151.418 65.7436 154.161 66.8967 155.008C67.9861 155.808 69.2966 156.535 70.4737 157.202C73.461 158.883 76.4969 160.475 79.5778 161.977C83.1301 163.746 87.3194 165.916 90.9008 167.519L90.9781 167.553C92.5354 168.29 94.6258 169.376 96.2403 169.757C97.8997 169.4 102.564 166.979 104.239 166.158C112.132 162.285 119.852 158.024 127.62 153.916L138.694 147.999C140.288 147.15 144.967 144.812 146.096 143.784C146.348 141.879 146.217 139.091 146.207 137.079L146.195 126.71L146.21 112.394C146.22 109.59 146.357 106.718 146.175 103.924C146.129 103.218 146.036 102.546 145.59 101.969C142.135 97.5052 115.084 86.5148 108.296 83.7392C103.142 81.6324 96.8987 79.4211 92.003 76.9145C90.9819 76.3917 88.0655 74.9838 88.0615 73.7943C88.2021 73.5927 88.3749 73.3849 88.6066 73.2938C90.8007 72.4299 92.8732 71.4582 94.9867 70.4148L115.198 60.2876C117.071 59.3446 126.803 54.1408 128.1 54.6971C129.665 56.4834 128.168 71.7371 129.127 74.2946C129.078 74.163 145.135 81.7045 146.127 82.0721C146.426 73.9863 146.19 64.5221 146.192 56.3282L146.214 46.2574C146.215 44.7679 146.526 39.7005 145.45 38.7767C143.294 36.9288 136.304 32.709 133.526 33.1922C131.165 34.1809 128.004 35.9819 125.668 37.206L108.705 46.2521L84.2633 59.26L74.6261 64.469C72.772 65.469 70.8665 66.3777 69.0527 67.4509C68.2756 67.9106 67.2093 68.4329 66.8362 69.2933C66.6344 69.7589 66.5482 70.2826 66.5183 70.7868C66.4287 72.2986 66.4274 82.5323 66.7666 83.3802C67.2856 84.6769 70.4218 85.8653 71.6389 86.5206C75.2471 88.4641 78.849 90.4328 82.5815 92.1326C86.3247 93.8352 90.0842 95.5335 93.8641 97.1546C98.2808 99.0475 126.091 110.321 127.587 112.169C128.071 112.766 128.295 113.664 128.377 114.413C128.648 116.872 128.367 119.575 128.363 122.059C128.359 124.985 128.564 127.961 128.429 130.878C128.403 131.452 128.336 132.083 128.126 132.622C127.863 133.295 126.945 133.817 126.345 134.169C124.917 135.003 123.372 135.655 121.903 136.417L109.868 142.608L101.263 147.047C99.922 147.75 97.7339 149.01 96.4048 149.563Z" fill="black"/>
<path d="M68.4768 7.34534C69.8255 7.43233 71.0654 7.77214 72.3209 8.26075C75.5214 9.50624 78.5155 11.3023 81.6015 12.8006C86.7953 15.3221 92.1751 17.6604 97.1609 20.577C102.438 23.6641 107.491 27.3492 109.092 33.6131C109.543 35.3767 109.932 38.454 108.858 40.0634C107.974 41.3886 86.843 52.6246 84.5954 53.1055C84.0586 53.2204 83.5716 53.1547 83.1194 52.8282C81.0496 51.3342 82.1195 44.0048 81.7585 41.4215C79.8751 39.4708 69.8268 34.7077 67.0856 33.7641C65.7871 34.1699 62.5626 36.1275 61.1051 36.8929L52.7352 41.3328C51.279 42.0961 48.8892 43.2168 47.6002 44.1083C47.3394 46.4482 47.4542 52.4924 47.4591 55.0811L47.5125 75.9067L47.5799 107.48L47.5908 118.297C47.5949 120.356 47.5423 122.749 47.6722 124.784C49.507 124.008 63.1232 116.993 63.5932 116.112C63.9228 115.494 63.2539 111.699 63.2174 110.771C63.1019 107.835 62.7658 93.0436 63.6263 91.1993C63.8703 90.6756 64.3441 90.0232 64.9209 89.8501C67.2333 89.1604 81.2616 97.0455 84.2408 98.595C88.2899 100.637 93.036 102.756 96.8174 105.209C97.9618 105.952 98.9067 107.359 98.9906 108.849C99.2659 114.073 99.3554 119.47 98.9087 124.687C98.5533 127.362 95.8536 128.581 93.7534 129.674C87.5007 132.932 81.1419 136.164 74.9134 139.441L58.594 147.96C55.17 149.751 51.7249 151.588 48.2469 153.271C47.419 153.671 46.4218 153.978 45.509 154.082C44.5533 154.192 43.1395 153.759 42.2515 153.391C37.6346 151.485 33.3283 149 28.9364 146.633C27.2372 145.718 25.0508 144.629 23.5219 143.526C22.7978 143.003 22.2585 141.578 22.236 140.663C22.1884 138.721 22.2438 136.715 22.2674 134.755C22.2974 131.543 22.3092 128.329 22.3024 125.116L22.2971 90.338L22.2662 56.3668C22.1994 51.0293 22.1656 45.6915 22.1648 40.3536C22.1742 38.069 22.1168 35.7436 22.2379 33.4642C22.2957 32.3752 22.5721 31.1476 23.3197 30.3142C24.9002 28.5522 40.5935 20.6457 44.0329 18.7768L55.5443 12.4973C59.5978 10.301 63.7751 7.61976 68.4768 7.34534ZM95.8775 124.983C96.4546 122.078 96.3705 111.313 96.0042 108.32C94.0073 106.235 86.2762 102.945 83.3793 101.348C80.7998 99.9256 77.3474 98.1657 74.6821 96.8079C71.8908 95.4 68.9617 94.0938 66.2411 92.6086C65.8172 98.1829 66.3503 104.413 66.2078 110.035C66.1541 112.149 67.0126 116.185 66.6377 117.993C63.5354 119.766 59.8211 121.573 56.6587 123.262C54.5598 124.383 47.0376 128.813 45.1958 128.597C44.9064 128.404 44.782 128.397 44.7458 127.995C44.5451 125.768 44.6234 123.037 44.6219 120.819L44.6223 103.773L44.5878 62.4451C44.5962 56.7106 44.5476 50.9625 44.6013 45.2274C44.6086 44.4364 44.6548 43.2962 45.1132 42.6525C45.4313 42.2121 45.8297 41.836 46.2877 41.544C47.1424 41.005 48.3066 40.5065 49.2161 40.0245C54.4794 37.235 59.728 34.4112 64.9743 31.5899C65.4526 31.3329 66.043 31.0752 66.5825 30.9913C67.1129 30.9128 67.6542 30.953 68.1673 31.1089C72.301 32.3984 78.8099 36.2987 82.6831 38.428C85.8304 40.1581 84.6956 46.6989 84.9262 49.9691C88.3215 48.5455 92.5652 46.043 95.8477 44.2767C99.3886 42.3715 103.204 40.4178 106.623 38.35C106.771 34.2013 105.598 31.0313 102.805 28.0112C101.324 26.4093 98.4089 24.4947 96.498 23.4344C88.6262 19.0674 80.3381 15.4083 72.3117 11.3272C70.7353 10.5257 68.8715 10.2179 67.1212 10.3151C63.6583 10.9771 58.6673 14.0321 55.4548 15.7904L44.9065 21.5188C42.8896 22.6066 25.406 31.631 25.3442 32.57C24.8747 39.6995 25.1912 48.149 25.2014 55.3573L25.1964 119.112L25.1893 134.842C25.1871 135.887 25.0668 140.803 25.2163 140.925C29.2655 144.237 38.1228 148.293 43.1378 150.654C46.0121 152.007 46.1645 150.94 48.2409 150.157C51.3177 148.626 54.333 146.984 57.3858 145.41C65.2943 141.388 73.1558 137.275 80.9684 133.071C83.518 131.709 86.0848 130.381 88.6684 129.086C90.2008 128.312 93.9796 126.404 95.2772 125.466C95.4859 125.316 95.6863 125.155 95.8775 124.983Z" fill="black"/>
</g>
</g>
<defs>
<clipPath id="clip0_1424_39">
<rect width="180" height="180" fill="white"/>
</clipPath>
<clipPath id="clip1_1424_39">
<rect width="172" height="209.046" fill="white" transform="translate(-3 -14)"/>
</clipPath>
</defs>
</svg>
