<svg width="134" height="69" viewBox="0 0 134 69" fill="none" xmlns="http://www.w3.org/2000/svg">
<g clip-path="url(#clip0_433_48)">
<path d="M37.5163 14.6715C38.4047 14.5904 42.116 16.4855 42.3587 17.4495C42.5329 18.1429 42.4593 19.9249 42.4588 20.7435L42.4607 25.6943C42.4617 27.7751 42.4531 29.852 42.4921 31.9322C42.4565 32.9903 41.9223 33.1129 41.0454 32.7374C40.0863 32.3093 39.2355 31.8271 38.2732 31.386C37.2619 30.9224 36.0995 30.5547 35.1335 30.002C34.9014 29.8271 34.8073 29.3513 34.792 29.0967C34.6931 27.4448 34.891 25.6388 34.7481 24.0035C34.1199 24.2257 33.2848 24.6647 32.6626 24.9724C31.4114 25.5925 30.1644 26.2213 28.9218 26.8587C27.5627 27.5465 25.3144 28.5525 24.0856 29.3114C24.8306 29.7408 25.8177 30.1297 26.6207 30.4645L30.6308 32.1097C32.7082 32.9679 41.6094 36.5366 42.305 38.2975C42.4133 38.5718 42.4379 38.8993 42.4503 39.1912C42.5467 41.4831 42.4565 43.8044 42.4584 46.1001L42.4717 49.8306C42.4873 53.5179 42.6601 52.8719 39.4179 54.5924L34.8667 57.0111C32.6063 58.209 30.3832 59.4525 28.0749 60.5617C24.8759 62.099 25.5274 62.3813 22.3276 60.8479C21.2318 60.3628 20.1489 59.7657 19.0713 59.238C17.5694 58.5028 16.0722 57.7444 14.6706 56.8298C14.1612 56.4971 14.0033 56.05 13.9656 55.4619C13.8927 54.6707 14.1012 53.8093 14.8494 53.4026C17.379 52.0262 19.9497 50.7257 22.4745 49.3399C23.0443 49.0271 23.6321 48.7295 24.2063 48.4352C26.0277 47.5021 25.8881 49.0034 25.9001 50.2487C25.9008 51.0556 25.912 51.8624 25.9338 52.6693C26.3072 52.5691 26.8645 52.2483 27.2206 52.068C28.0164 51.666 28.8017 51.2274 29.5958 50.8216C30.7203 50.2611 31.841 49.693 32.9579 49.1173C33.4526 48.8638 34.2237 48.496 34.6538 48.2098C34.7551 46.4537 34.6069 44.5239 34.6463 42.7531C34.6525 42.4769 34.3559 42.317 34.1311 42.1983C32.5344 41.3578 30.8224 40.746 29.1693 40.026C24.3118 37.876 19.2268 36.0136 14.6967 33.2156C13.817 32.6722 14.1829 30.7692 14.1267 29.8686C14.0881 29.2481 14.1141 28.2993 14.1802 27.6646C14.3703 26.4712 16.298 25.7657 17.2609 25.2471L19.987 23.7597L28.0759 19.4475C30.6106 18.1113 33.1345 16.7584 35.6648 15.4146C36.2251 15.117 36.8844 14.7331 37.5163 14.6715ZM24.9967 54.2574C24.8371 52.627 25.0221 50.8059 24.8932 49.2174C24.2427 49.4058 23.43 49.8961 22.8108 50.2317L20.0855 51.703C18.5809 52.5051 17.0467 53.2554 15.5538 54.0798C15.4227 54.152 15.1396 54.3594 15.0756 54.489C14.8862 54.8729 14.8258 55.7828 15.2083 56.0637C15.5697 56.329 16.0044 56.5702 16.3948 56.7913C17.3858 57.349 18.3929 57.8772 19.4148 58.3756C20.5932 58.9622 21.9829 59.6822 23.1709 60.2138L23.1965 60.2252C23.7131 60.4696 24.4066 60.8298 24.9421 60.9561C25.4926 60.8379 27.0399 60.0349 27.5955 59.7624C30.2135 58.4776 32.7745 57.0642 35.3512 55.7016L39.0247 53.7386C39.5536 53.4571 41.1057 52.6816 41.4803 52.3404C41.5639 51.7087 41.5202 50.7836 41.5169 50.1163L41.5131 46.6768L41.5178 41.9278C41.5211 40.9975 41.5667 40.045 41.5064 39.1181C41.4912 38.8841 41.4604 38.661 41.3122 38.4697C40.1661 36.9889 31.193 33.3432 28.9411 32.4225C27.2316 31.7236 25.1605 30.9901 23.5365 30.1587C23.1978 29.9852 22.2304 29.5182 22.2291 29.1236C22.2757 29.0567 22.333 28.9878 22.4099 28.9576C23.1377 28.671 23.8252 28.3487 24.5262 28.0026L31.2308 24.6432C31.852 24.3304 35.0805 22.6042 35.5104 22.7887C36.0296 23.3813 35.5332 28.4412 35.8514 29.2896C35.835 29.2459 41.1613 31.7476 41.4903 31.8695C41.5895 29.1873 41.5112 26.0479 41.5121 23.3298L41.5192 19.9891C41.5197 19.495 41.6227 17.8141 41.2657 17.5076C40.5507 16.8947 38.2318 15.4949 37.3103 15.6552C36.5274 15.9831 35.4786 16.5806 34.7037 16.9866L29.0769 19.9874L20.9691 24.3023L17.7723 26.0303C17.1572 26.362 16.5252 26.6634 15.9235 27.0194C15.6657 27.1719 15.312 27.3451 15.1882 27.6306C15.1213 27.785 15.0927 27.9587 15.0828 28.126C15.0531 28.6274 15.0526 32.0222 15.1651 32.3034C15.3373 32.7336 16.3776 33.1278 16.7814 33.3452C17.9783 33.9898 19.1731 34.6429 20.4112 35.2068C21.6529 35.7715 22.9 36.3349 24.1539 36.8727C25.619 37.5006 34.844 41.2401 35.3405 41.8533C35.5008 42.0512 35.5752 42.3492 35.6025 42.5975C35.6925 43.4133 35.5993 44.3099 35.5979 45.1338C35.5964 46.1044 35.6643 47.0916 35.6197 48.0593C35.6109 48.2497 35.589 48.459 35.5191 48.6379C35.4319 48.861 35.1274 49.0342 34.9283 49.151C34.4548 49.4277 33.9422 49.6441 33.4548 49.8966L29.4626 51.9502L26.6083 53.423C26.1634 53.656 25.4375 54.0742 24.9967 54.2574Z" fill="white"/>
<path d="M15.7327 7.08057C16.1801 7.10942 16.5914 7.22214 17.0079 7.38423C18.0695 7.79738 19.0627 8.39316 20.0864 8.89018C21.8093 9.7266 23.5939 10.5023 25.2478 11.4698C26.9983 12.4938 28.6745 13.7162 29.2055 15.7941C29.355 16.3791 29.4841 17.3999 29.1279 17.9337C28.8346 18.3733 21.8251 22.1005 21.0795 22.2601C20.9015 22.2982 20.7399 22.2764 20.5899 22.1681C19.9033 21.6725 20.2582 19.2412 20.1385 18.3843C19.5137 17.7372 16.1805 16.1572 15.2712 15.8442C14.8405 15.9788 13.7708 16.6281 13.2874 16.882L10.5109 18.3548C10.0279 18.608 9.23515 18.9798 8.80756 19.2755C8.72105 20.0517 8.75913 22.0567 8.76074 22.9154L8.77845 29.8236L8.80081 40.2971L8.80442 43.8852C8.8058 44.5682 8.78833 45.3622 8.83144 46.0371C9.44006 45.7799 13.9568 43.4528 14.1127 43.1605C14.2221 42.9554 14.0002 41.6968 13.9881 41.3887C13.9497 40.4148 13.8383 35.5082 14.1237 34.8965C14.2046 34.7228 14.3618 34.5063 14.5531 34.4489C15.3202 34.2201 19.9736 36.8357 20.9619 37.3498C22.3051 38.027 23.8794 38.7299 25.1338 39.5439C25.5134 39.7902 25.8269 40.2568 25.8547 40.7513C25.946 42.4841 25.9757 44.2744 25.8275 46.0048C25.7096 46.8924 24.8141 47.2967 24.1174 47.6594C22.0433 48.7401 19.9339 49.8122 17.8678 50.8991L12.4544 53.7249C11.3186 54.3192 10.1758 54.9286 9.02206 55.4867C8.74745 55.6196 8.41667 55.7212 8.11385 55.7558C7.79684 55.7924 7.32785 55.6486 7.03329 55.5266C5.50179 54.8944 4.07331 54.07 2.61644 53.285C2.05278 52.9812 1.3275 52.62 0.820335 52.2541C0.580143 52.0809 0.401245 51.6082 0.393791 51.3044C0.37798 50.6603 0.396354 49.9949 0.404188 49.3447C0.414159 48.2792 0.418052 47.2132 0.41582 46.1472L0.414063 34.6107L0.403808 23.3419C0.381636 21.5713 0.370431 19.8007 0.370146 18.03C0.37328 17.2722 0.354241 16.5008 0.394408 15.7447C0.413589 15.3834 0.50527 14.9762 0.753249 14.6998C1.27755 14.1153 6.4833 11.4925 7.62421 10.8726L11.4427 8.78956C12.7874 8.06103 14.1731 7.1716 15.7327 7.08057ZM24.822 46.1031C25.0135 45.1396 24.9855 41.5686 24.864 40.5757C24.2016 39.8842 21.6371 38.7926 20.6761 38.2629C19.8205 37.7911 18.6753 37.2074 17.7911 36.757C16.8652 36.2899 15.8935 35.8566 14.9911 35.364C14.8504 37.2131 15.0273 39.2795 14.98 41.1448C14.9622 41.8458 15.247 43.1847 15.1226 43.7846C14.0935 44.3726 12.8614 44.9721 11.8124 45.5321C11.1162 45.9042 8.62092 47.3736 8.00997 47.302C7.91397 47.2379 7.87271 47.2355 7.8607 47.1022C7.79413 46.3637 7.8201 45.4576 7.81958 44.722L7.81972 39.0674L7.80828 25.3582C7.81108 23.4559 7.79494 21.5492 7.81274 19.6467C7.81517 19.3844 7.8305 19.0061 7.98257 18.7926C8.08807 18.6465 8.22025 18.5217 8.37218 18.4249C8.65567 18.2461 9.04186 18.0807 9.34359 17.9208C11.0895 16.9955 12.8306 16.0588 14.5708 15.1229C14.7295 15.0377 14.9254 14.9522 15.1043 14.9244C15.2803 14.8983 15.4598 14.9117 15.63 14.9634C17.0013 15.3911 19.1604 16.6849 20.4452 17.3913C21.4892 17.9652 21.1128 20.1349 21.1893 21.2197C22.3156 20.7474 23.7233 19.9173 24.8121 19.3314C25.9867 18.6994 27.2524 18.0513 28.3866 17.3654C28.4355 15.9892 28.0466 14.9376 27.1202 13.9358C26.6288 13.4044 25.6617 12.7693 25.0278 12.4176C22.4166 10.969 19.6673 9.75521 17.0048 8.40142C16.4819 8.13554 15.8636 8.03345 15.283 8.06568C14.1343 8.28528 12.4787 9.29868 11.4131 9.88194L7.91402 11.7822C7.24495 12.143 1.44534 15.1366 1.42483 15.448C1.2691 17.8131 1.37407 20.6159 1.37745 23.007L1.37578 44.1557L1.37346 49.3737C1.3727 49.7201 1.33282 51.3509 1.38238 51.3913C2.72559 52.49 5.66374 53.8355 7.32728 54.6186C8.28074 55.0676 8.3313 54.7136 9.02007 54.454C10.0407 53.9461 11.0409 53.4013 12.0536 52.8792C14.677 51.545 17.2848 50.1805 19.8764 48.7861C20.7221 48.3343 21.5736 47.8938 22.4306 47.4643C22.9389 47.2075 24.1925 46.5744 24.6229 46.2635C24.6921 46.2137 24.7586 46.16 24.822 46.1031Z" fill="white"/>
<path d="M58.3377 10.5859C60.8142 10.5859 62.8778 11.4544 64.5288 13.1913C66.1969 14.9282 67.031 17.0693 67.031 19.6145C67.031 22.1597 66.1969 24.3008 64.5288 26.0377C62.8778 27.7746 60.8142 28.6431 58.3377 28.6431H51.1665V10.5859H58.3377ZM58.3377 25.238C59.9027 25.238 61.1753 24.7221 62.1555 23.6902C63.1358 22.6412 63.6259 21.2826 63.6259 19.6145C63.6259 17.9464 63.1358 16.5964 62.1555 15.5645C61.1753 14.5155 59.9027 13.991 58.3377 13.991H54.7263V25.238H58.3377ZM69.5046 14.1973C68.9542 14.1973 68.4727 13.9996 68.06 13.604C67.6645 13.1913 67.4667 12.7098 67.4667 12.1595C67.4667 11.6092 67.6645 11.1276 68.06 10.7149C68.4727 10.3022 68.9542 10.0958 69.5046 10.0958C70.0721 10.0958 70.5536 10.3022 70.9491 10.7149C71.3619 11.1276 71.5682 11.6092 71.5682 12.1595C71.5682 12.7098 71.3619 13.1913 70.9491 13.604C70.5536 13.9996 70.0721 14.1973 69.5046 14.1973ZM67.8536 28.6431V15.7451H71.1813V28.6431H67.8536ZM82.5591 15.7451H85.8094V28.024C85.8094 30.0188 85.1473 31.5408 83.8231 32.5898C82.5161 33.6389 80.934 34.1634 79.0767 34.1634C77.6837 34.1634 76.4541 33.8968 75.3878 33.3637C74.3388 32.8306 73.5305 32.0481 72.963 31.0163L75.8006 29.3911C76.4541 30.595 77.5805 31.1969 79.1798 31.1969C80.2289 31.1969 81.0544 30.9217 81.6563 30.3714C82.2582 29.8211 82.5591 29.0386 82.5591 28.024V26.631C81.5789 27.938 80.2031 28.5915 78.4318 28.5915C76.6089 28.5915 75.0783 27.9552 73.8401 26.6826C72.6191 25.3928 72.0086 23.8278 72.0086 21.9877C72.0086 20.1648 72.6277 18.6085 73.8659 17.3187C75.1041 16.0289 76.6261 15.384 78.4318 15.384C80.2031 15.384 81.5789 16.0375 82.5591 17.3445V15.7451ZM76.3423 24.5415C77.0302 25.195 77.8986 25.5218 78.9477 25.5218C79.9967 25.5218 80.8566 25.195 81.5273 24.5415C82.2152 23.8708 82.5591 23.0196 82.5591 21.9877C82.5591 20.9731 82.2152 20.139 81.5273 19.4855C80.8566 18.8148 79.9967 18.4795 78.9477 18.4795C77.8986 18.4795 77.0302 18.8148 76.3423 19.4855C75.6716 20.139 75.3363 20.9731 75.3363 21.9877C75.3363 23.0196 75.6716 23.8708 76.3423 24.5415ZM88.9301 14.1973C88.3798 14.1973 87.8983 13.9996 87.4855 13.604C87.09 13.1913 86.8922 12.7098 86.8922 12.1595C86.8922 11.6092 87.09 11.1276 87.4855 10.7149C87.8983 10.3022 88.3798 10.0958 88.9301 10.0958C89.4976 10.0958 89.9791 10.3022 90.3747 10.7149C90.7874 11.1276 90.9938 11.6092 90.9938 12.1595C90.9938 12.7098 90.7874 13.1913 90.3747 13.604C89.9791 13.9996 89.4976 14.1973 88.9301 14.1973ZM87.2792 28.6431V15.7451H90.6068V28.6431H87.2792ZM99.4824 18.9438H96.5675V24.3094C96.5675 24.7565 96.6793 25.0832 96.9029 25.2896C97.1264 25.496 97.4532 25.6163 97.8831 25.6507C98.313 25.6679 98.8462 25.6593 99.4824 25.6249V28.6431C97.1952 28.901 95.5787 28.6861 94.6328 27.9982C93.7042 27.3103 93.2398 26.0807 93.2398 24.3094V18.9438H90.9956V15.7451H93.2398V13.1397L96.5675 12.1337V15.7451H99.4824V18.9438ZM109.68 15.7451H113.008V28.6431H109.68V27.1211C108.683 28.3765 107.281 29.0042 105.476 29.0042C103.756 29.0042 102.277 28.3507 101.039 27.0437C99.8177 25.7195 99.2072 24.103 99.2072 22.1941C99.2072 20.2852 99.8177 18.6772 101.039 17.3702C102.277 16.0461 103.756 15.384 105.476 15.384C107.281 15.384 108.683 16.0117 109.68 17.2671V15.7451ZM103.541 24.8253C104.212 25.496 105.063 25.8313 106.095 25.8313C107.127 25.8313 107.978 25.496 108.648 24.8253C109.336 24.1374 109.68 23.2603 109.68 22.1941C109.68 21.1279 109.336 20.2594 108.648 19.5887C107.978 18.9008 107.127 18.5569 106.095 18.5569C105.063 18.5569 104.212 18.9008 103.541 19.5887C102.87 20.2594 102.535 21.1279 102.535 22.1941C102.535 23.2603 102.87 24.1374 103.541 24.8253ZM114.478 28.6431V9.81204H117.805V28.6431H114.478Z" fill="white"/>
<path d="M57.3317 55.7645C55.5432 55.7645 54.0384 55.3689 52.8174 54.5779C51.5964 53.7696 50.7365 52.6776 50.2378 51.3018L53.2817 49.5218C53.9868 51.362 55.3712 52.282 57.4349 52.282C58.4323 52.282 59.1632 52.1014 59.6275 51.7403C60.0919 51.3792 60.324 50.9234 60.324 50.3731C60.324 49.7368 60.0403 49.2467 59.4728 48.9027C58.9053 48.5416 57.8906 48.1547 56.4289 47.7419C55.6206 47.5012 54.9327 47.2604 54.3652 47.0196C53.8149 46.7789 53.256 46.4607 52.6884 46.0652C52.1381 45.6525 51.7168 45.1365 51.4244 44.5174C51.1321 43.8983 50.9859 43.1761 50.9859 42.3506C50.9859 40.7168 51.562 39.4184 52.7142 38.4554C53.8837 37.4752 55.2852 36.985 56.919 36.985C58.3807 36.985 59.6619 37.3462 60.7626 38.0685C61.8804 38.7735 62.7489 39.7624 63.368 41.035L60.3756 42.7633C59.6533 41.2156 58.5011 40.4417 56.919 40.4417C56.1795 40.4417 55.5948 40.6137 55.1648 40.9576C54.7521 41.2844 54.5457 41.7143 54.5457 42.2474C54.5457 42.8149 54.7779 43.2792 55.2422 43.6404C55.7238 43.9843 56.6352 44.3627 57.9766 44.7754C58.5269 44.9474 58.9397 45.085 59.2148 45.1881C59.5072 45.2741 59.8941 45.4203 60.3756 45.6267C60.8743 45.8158 61.2527 45.9964 61.5106 46.1684C61.7858 46.3404 62.0954 46.5725 62.4393 46.8649C62.7832 47.1572 63.0412 47.4582 63.2132 47.7677C63.4023 48.0773 63.5571 48.4556 63.6775 48.9027C63.8151 49.3327 63.8839 49.8056 63.8839 50.3215C63.8839 51.9897 63.2734 53.3139 62.0524 54.2941C60.8486 55.2743 59.275 55.7645 57.3317 55.7645ZM74.6583 42.5054H77.986V55.4033H74.6583V53.8814C73.6609 55.1368 72.2593 55.7645 70.4536 55.7645C68.7338 55.7645 67.2549 55.111 66.0167 53.804C64.7957 52.4798 64.1852 50.8632 64.1852 48.9543C64.1852 47.0454 64.7957 45.4375 66.0167 44.1305C67.2549 42.8063 68.7338 42.1442 70.4536 42.1442C72.2593 42.1442 73.6609 42.7719 74.6583 44.0273V42.5054ZM68.5189 51.5855C69.1896 52.2562 70.0408 52.5916 71.0727 52.5916C72.1045 52.5916 72.9558 52.2562 73.6265 51.5855C74.3144 50.8976 74.6583 50.0206 74.6583 48.9543C74.6583 47.8881 74.3144 47.0196 73.6265 46.349C72.9558 45.6611 72.1045 45.3171 71.0727 45.3171C70.0408 45.3171 69.1896 45.6611 68.5189 46.349C67.8482 47.0196 67.5128 47.8881 67.5128 48.9543C67.5128 50.0206 67.8482 50.8976 68.5189 51.5855ZM86.627 42.1442C88.0372 42.1442 89.198 42.6171 90.1095 43.563C91.0381 44.5088 91.5024 45.8158 91.5024 47.484V55.4033H88.1748V47.8967C88.1748 47.0368 87.9426 46.3833 87.4783 45.9362C87.0139 45.4719 86.3948 45.2397 85.621 45.2397C84.7611 45.2397 84.0732 45.5063 83.5573 46.0394C83.0414 46.5725 82.7834 47.3722 82.7834 48.4384V55.4033H79.4557V37.3462H82.7834V43.9499C83.5917 42.7461 84.8729 42.1442 86.627 42.1442ZM102.599 42.5054H105.926V55.4033H102.599V53.8814C101.601 55.1368 100.199 55.7645 98.3938 55.7645C96.6741 55.7645 95.1951 55.111 93.9569 53.804C92.7359 52.4798 92.1254 50.8632 92.1254 48.9543C92.1254 47.0454 92.7359 45.4375 93.9569 44.1305C95.1951 42.8063 96.6741 42.1442 98.3938 42.1442C100.199 42.1442 101.601 42.7719 102.599 44.0273V42.5054ZM96.4591 51.5855C97.1298 52.2562 97.981 52.5916 99.0129 52.5916C100.045 52.5916 100.896 52.2562 101.567 51.5855C102.255 50.8976 102.599 50.0206 102.599 48.9543C102.599 47.8881 102.255 47.0196 101.567 46.349C100.896 45.6611 100.045 45.3171 99.0129 45.3171C97.981 45.3171 97.1298 45.6611 96.4591 46.349C95.7884 47.0196 95.453 47.8881 95.453 48.9543C95.453 50.0206 95.7884 50.8976 96.4591 51.5855ZM117.198 42.5054H120.526V55.4033H117.198V53.8814C116.201 55.1368 114.799 55.7645 112.994 55.7645C111.274 55.7645 109.795 55.111 108.557 53.804C107.336 52.4798 106.725 50.8632 106.725 48.9543C106.725 47.0454 107.336 45.4375 108.557 44.1305C109.795 42.8063 111.274 42.1442 112.994 42.1442C114.799 42.1442 116.201 42.7719 117.198 44.0273V42.5054ZM111.059 51.5855C111.73 52.2562 112.581 52.5916 113.613 52.5916C114.645 52.5916 115.496 52.2562 116.167 51.5855C116.854 50.8976 117.198 50.0206 117.198 48.9543C117.198 47.8881 116.854 47.0196 116.167 46.349C115.496 45.6611 114.645 45.3171 113.613 45.3171C112.581 45.3171 111.73 45.6611 111.059 46.349C110.388 47.0196 110.053 47.8881 110.053 48.9543C110.053 50.0206 110.388 50.8976 111.059 51.5855ZM130.405 42.5054H133.965L129.27 55.4033C128.6 57.2606 127.705 58.602 126.588 59.4275C125.487 60.2702 124.111 60.6485 122.46 60.5625V57.467C123.354 57.4842 124.06 57.295 124.575 56.8995C125.109 56.5039 125.53 55.8676 125.839 54.9906L120.551 42.5054H124.188L127.542 51.1728L130.405 42.5054Z" fill="white"/>
</g>
<defs>
<clipPath id="clip0_433_48">
<rect width="134" height="69" fill="white"/>
</clipPath>
</defs>
</svg>
