<svg width="180" height="79" viewBox="0 0 180 79" fill="none" xmlns="http://www.w3.org/2000/svg">
<g clip-path="url(#clip0_552_99)">
<path d="M59.8286 16.7139C60.8407 16.6215 65.0688 18.7805 65.3452 19.8788C65.5437 20.6686 65.4599 22.6988 65.4593 23.6314L65.4615 29.2716C65.4626 31.642 65.4528 34.0081 65.4972 36.378C65.4566 37.5835 64.8481 37.7231 63.8491 37.2953C62.7565 36.8076 61.7872 36.2582 60.6908 35.7557C59.5387 35.2275 58.2145 34.8087 57.114 34.1791C56.8496 33.9798 56.7424 33.4378 56.725 33.1477C56.6122 31.2658 56.8378 29.2083 56.6749 27.3454C55.9593 27.5984 55.008 28.0986 54.2991 28.4491C52.8736 29.1556 51.453 29.8719 50.0374 30.5981C48.4891 31.3816 45.9277 32.5277 44.5279 33.3923C45.3765 33.8815 46.501 34.3245 47.4159 34.7059L51.9844 36.5802C54.351 37.5579 64.4917 41.6236 65.2841 43.6296C65.4074 43.9421 65.4355 44.3152 65.4496 44.6477C65.5594 47.2587 65.4566 49.9033 65.4588 52.5187L65.4739 56.7686C65.4918 60.9693 65.6887 60.2334 61.9949 62.1934L56.8101 64.9489C54.2349 66.3136 51.7022 67.7302 49.0726 68.9939C45.4282 70.7452 46.1704 71.0669 42.525 69.3199C41.2767 68.7673 40.0429 68.0871 38.8153 67.4858C37.1043 66.6483 35.3986 65.7842 33.8019 64.7423C33.2215 64.3633 33.0416 63.8539 32.9987 63.184C32.9157 62.2827 33.1532 61.3013 34.0055 60.8379C36.8874 59.2699 39.816 57.7884 42.6923 56.2095C43.3415 55.8532 44.0112 55.5142 44.6653 55.1789C46.7403 54.1159 46.5812 55.8261 46.5949 57.2449C46.5957 58.1641 46.6085 59.0833 46.6333 60.0025C47.0587 59.8884 47.6937 59.5229 48.0993 59.3175C49.0059 58.8595 49.9005 58.3599 50.8053 57.8976C52.0863 57.259 53.363 56.6118 54.6355 55.9559C55.1991 55.6672 56.0775 55.2481 56.5676 54.9221C56.6829 52.9215 56.5141 50.723 56.559 48.7057C56.566 48.391 56.2281 48.2087 55.9721 48.0736C54.153 47.116 52.2026 46.419 50.3193 45.5988C44.7855 43.1494 38.9924 41.0277 33.8316 37.84C32.8293 37.221 33.2462 35.0531 33.1823 34.0271C33.1382 33.3202 33.1679 32.2392 33.2431 31.5162C33.4597 30.1566 35.6559 29.3528 36.7529 28.762L39.8585 27.0675L49.0737 22.1549C51.9614 20.6327 54.8367 19.0913 57.7193 17.5604C58.3576 17.2215 59.1087 16.7841 59.8286 16.7139ZM45.5657 61.8117C45.384 59.9544 45.5947 57.8797 45.4478 56.07C44.7068 56.2847 43.7809 56.8432 43.0755 57.2255L39.9707 58.9017C38.2566 59.8154 36.5088 60.6703 34.808 61.6095C34.6587 61.6917 34.3362 61.928 34.2633 62.0756C34.0475 62.513 33.9786 63.5495 34.4144 63.8696C34.8261 64.1719 35.3213 64.4466 35.7662 64.6985C36.8951 65.3338 38.0424 65.9356 39.2067 66.5034C40.5491 67.1717 42.1323 67.9919 43.4857 68.5975L43.5149 68.6105C44.1035 68.889 44.8934 69.2994 45.5036 69.4432C46.1307 69.3085 47.8935 68.3937 48.5265 68.0833C51.509 66.6196 54.4265 65.0094 57.3621 63.4571L61.5471 61.2207C62.1496 60.9001 63.9178 60.0166 64.3446 59.6278C64.4398 58.9082 64.39 57.8543 64.3862 57.0941L64.3819 53.1756L64.3873 47.7654C64.3911 46.7056 64.443 45.6204 64.3743 44.5644C64.357 44.2979 64.3218 44.0437 64.1531 43.8258C62.8474 42.1388 52.6249 37.9855 50.0593 36.9366C48.1119 36.1404 45.7524 35.3048 43.9023 34.3575C43.5164 34.1599 42.4143 33.6279 42.4128 33.1783C42.4659 33.1021 42.5312 33.0236 42.6187 32.9892C43.4479 32.6627 44.2311 32.2955 45.0298 31.9012L52.6679 28.0741C53.3755 27.7177 57.0536 25.7512 57.5434 25.9614C58.1348 26.6364 57.5693 32.4009 57.9319 33.3674C57.9132 33.3177 63.9811 36.1677 64.3559 36.3066C64.469 33.2509 64.3797 29.6743 64.3808 26.5778L64.3889 22.7719C64.3895 22.2091 64.5068 20.2941 64.1001 19.9449C63.2855 19.2466 60.6438 17.6519 59.5939 17.8345C58.702 18.2082 57.5071 18.8888 56.6244 19.3514L50.2141 22.7699L40.9774 27.6857L37.3354 29.6543C36.6347 30.0322 35.9146 30.3756 35.2292 30.7811C34.9355 30.9549 34.5326 31.1522 34.3915 31.4774C34.3153 31.6533 34.2827 31.8512 34.2714 32.0418C34.2376 32.6131 34.2371 36.4805 34.3653 36.8009C34.5614 37.291 35.7466 37.7401 36.2065 37.9877C37.5701 38.7221 38.9313 39.4662 40.3418 40.1085C41.7564 40.7519 43.1771 41.3938 44.6056 42.0064C46.2747 42.7217 56.7842 46.9819 57.3499 47.6805C57.5325 47.906 57.6172 48.2455 57.6484 48.5283C57.7508 49.4578 57.6446 50.4792 57.6431 51.4178C57.6414 52.5236 57.7187 53.6482 57.6679 54.7507C57.6579 54.9675 57.6329 55.206 57.5533 55.4098C57.454 55.6639 57.107 55.8613 56.8803 55.9943C56.3408 56.3095 55.7568 56.5561 55.2015 56.8438L50.6535 59.1834L47.4018 60.8612C46.8949 61.1266 46.068 61.603 45.5657 61.8117Z" fill="black"/>
<path d="M35.012 8.06641C35.5217 8.09928 35.9903 8.2277 36.4647 8.41235C37.6742 8.88303 38.8057 9.56177 39.9719 10.128C41.9347 11.0809 43.9678 11.9645 45.852 13.0668C47.8463 14.2334 49.7558 15.626 50.3607 17.9932C50.5311 18.6597 50.6782 19.8226 50.2724 20.4308C49.9382 20.9316 41.9527 25.1778 41.1034 25.3595C40.9005 25.4029 40.7165 25.3781 40.5456 25.2547C39.7634 24.6901 40.1677 21.9203 40.0313 20.944C39.3195 20.2068 35.5222 18.4068 34.4863 18.0502C33.9956 18.2036 32.777 18.9434 32.2262 19.2326L29.0632 20.9105C28.5129 21.199 27.6098 21.6225 27.1226 21.9594C27.0241 22.8437 27.0675 25.1278 27.0693 26.1061L27.0895 33.9762L27.1149 45.908L27.1191 49.9957C27.1206 50.7738 27.1007 51.6784 27.1498 52.4473C27.8432 52.1542 32.9889 49.5032 33.1665 49.1701C33.2911 48.9365 33.0382 47.5026 33.0245 47.1517C32.9808 46.0421 32.8538 40.4524 33.179 39.7554C33.2712 39.5575 33.4502 39.3109 33.6682 39.2455C34.5421 38.9849 39.8435 41.9647 40.9693 42.5503C42.4995 43.3219 44.2931 44.1226 45.7222 45.0499C46.1546 45.3306 46.5117 45.8621 46.5434 46.4255C46.6475 48.3996 46.6813 50.4391 46.5125 52.4105C46.3781 53.4216 45.3579 53.8823 44.5642 54.2954C42.2013 55.5266 39.7983 56.748 37.4445 57.9862L31.2773 61.2056C29.9833 61.8825 28.6814 62.5768 27.367 63.2126C27.0541 63.364 26.6773 63.4798 26.3323 63.5192C25.9712 63.5609 25.4369 63.397 25.1013 63.2581C23.3566 62.5379 21.7292 61.5987 20.0695 60.7043C19.4273 60.3583 18.601 59.9468 18.0233 59.5299C17.7496 59.3326 17.5458 58.794 17.5373 58.448C17.5193 57.7143 17.5402 56.9562 17.5492 56.2154C17.5605 55.0016 17.565 53.7871 17.5624 52.5727L17.5604 39.4299L17.5487 26.592C17.5235 24.5749 17.5107 22.5577 17.5104 20.5404C17.514 19.6771 17.4923 18.7983 17.538 17.9369C17.5599 17.5254 17.6643 17.0615 17.9468 16.7465C18.5441 16.0806 24.4747 13.0927 25.7745 12.3864L30.1247 10.0134C31.6566 9.18339 33.2352 8.17011 35.012 8.06641ZM45.367 52.5224C45.585 51.4248 45.5532 47.3566 45.4148 46.2254C44.6602 45.4376 41.7385 44.194 40.6438 43.5906C39.669 43.0531 38.3643 42.3881 37.3571 41.8749C36.3022 41.3429 35.1953 40.8492 34.1671 40.288C34.0069 42.3946 34.2084 44.7488 34.1545 46.8737C34.1343 47.6723 34.4587 49.1977 34.317 49.8811C33.1446 50.551 31.741 51.2339 30.5459 51.872C29.7527 52.2959 26.91 53.9699 26.214 53.8883C26.1046 53.8153 26.0576 53.8126 26.0439 53.6606C25.9681 52.8193 25.9977 51.7871 25.9971 50.949L25.9972 44.5071L25.9842 28.889C25.9874 26.7219 25.969 24.5496 25.9893 22.3823C25.9921 22.0834 26.0095 21.6525 26.1828 21.4092C26.303 21.2428 26.4535 21.1007 26.6266 20.9903C26.9496 20.7866 27.3896 20.5982 27.7333 20.4161C29.7223 19.3619 31.7058 18.2948 33.6884 17.2286C33.8692 17.1315 34.0923 17.0341 34.2961 17.0024C34.4966 16.9727 34.7012 16.9879 34.8951 17.0468C36.4572 17.5341 38.917 19.0081 40.3807 19.8128C41.5701 20.4666 41.1412 22.9384 41.2284 24.1742C42.5115 23.6362 44.1152 22.6905 45.3557 22.023C46.6938 21.303 48.1357 20.5647 49.4279 19.7833C49.4836 18.2155 49.0405 17.0175 47.9851 15.8762C47.4253 15.2708 46.3236 14.5473 45.6014 14.1466C42.6266 12.4963 39.4945 11.1135 36.4613 9.57118C35.8655 9.26828 35.1612 9.15197 34.4997 9.18869C33.1911 9.43887 31.305 10.5934 30.0909 11.2578L26.1047 13.4226C25.3424 13.8337 18.7353 17.2441 18.7119 17.599C18.5345 20.2933 18.6541 23.4864 18.6579 26.2104L18.656 50.3039L18.6534 56.2484C18.6525 56.6431 18.6071 58.501 18.6636 58.5469C20.1938 59.7987 23.5411 61.3315 25.4362 62.2237C26.5225 62.7352 26.5801 62.3318 27.3647 62.0361C28.5275 61.4575 29.667 60.8368 30.8206 60.242C33.8093 58.7221 36.7802 57.1676 39.7327 55.579C40.6962 55.0643 41.6662 54.5625 42.6426 54.0732C43.2217 53.7807 44.6497 53.0594 45.1401 52.7052C45.219 52.6484 45.2947 52.5873 45.367 52.5224Z" fill="black"/>
<path d="M83.5492 11.8571C86.3705 11.8571 88.7215 12.8465 90.6023 14.8253C92.5027 16.804 93.4529 19.2432 93.4529 22.1428C93.4529 25.0424 92.5027 27.4816 90.6023 29.4604C88.7215 31.4391 86.3705 32.4285 83.5492 32.4285H75.3794V11.8571H83.5492ZM83.5492 28.5493C85.3321 28.5493 86.7819 27.9616 87.8986 26.7861C89.0154 25.591 89.5737 24.0432 89.5737 22.1428C89.5737 20.2424 89.0154 18.7044 87.8986 17.5289C86.7819 16.3338 85.3321 15.7363 83.5492 15.7363H79.435V28.5493H83.5492ZM96.2709 15.9714C95.644 15.9714 95.0954 15.7461 94.6252 15.2955C94.1746 14.8253 93.9493 14.2767 93.9493 13.6497C93.9493 13.0228 94.1746 12.4742 94.6252 12.004C95.0954 11.5338 95.644 11.2987 96.2709 11.2987C96.9175 11.2987 97.466 11.5338 97.9166 12.004C98.3868 12.4742 98.6219 13.0228 98.6219 13.6497C98.6219 14.2767 98.3868 14.8253 97.9166 15.2955C97.466 15.7461 96.9175 15.9714 96.2709 15.9714ZM94.3901 32.4285V17.7346H98.1811V32.4285H94.3901ZM111.143 17.7346H114.846V31.7232C114.846 33.9959 114.092 35.7298 112.583 36.9249C111.094 38.12 109.292 38.7175 107.176 38.7175C105.589 38.7175 104.188 38.4138 102.973 37.8065C101.778 37.1991 100.857 36.3077 100.211 35.1322L103.444 33.2808C104.188 34.6522 105.471 35.3379 107.293 35.3379C108.489 35.3379 109.429 35.0244 110.115 34.3975C110.8 33.7706 111.143 32.8791 111.143 31.7232V30.1363C110.026 31.6253 108.459 32.3698 106.441 32.3698C104.364 32.3698 102.621 31.6449 101.21 30.1951C99.8191 28.7257 99.1236 26.9428 99.1236 24.8465C99.1236 22.7698 99.8289 20.9967 101.24 19.5273C102.65 18.0579 104.384 17.3232 106.441 17.3232C108.459 17.3232 110.026 18.0677 111.143 19.5567V17.7346ZM104.061 27.7559C104.844 28.5004 105.834 28.8726 107.029 28.8726C108.224 28.8726 109.204 28.5004 109.968 27.7559C110.751 26.9918 111.143 26.022 111.143 24.8465C111.143 23.6906 110.751 22.7404 109.968 21.9959C109.204 21.2318 108.224 20.8498 107.029 20.8498C105.834 20.8498 104.844 21.2318 104.061 21.9959C103.297 22.7404 102.915 23.6906 102.915 24.8465C102.915 26.022 103.297 26.9918 104.061 27.7559ZM118.401 15.9714C117.774 15.9714 117.226 15.7461 116.756 15.2955C116.305 14.8253 116.08 14.2767 116.08 13.6497C116.08 13.0228 116.305 12.4742 116.756 12.004C117.226 11.5338 117.774 11.2987 118.401 11.2987C119.048 11.2987 119.596 11.5338 120.047 12.004C120.517 12.4742 120.752 13.0228 120.752 13.6497C120.752 14.2767 120.517 14.8253 120.047 15.2955C119.596 15.7461 119.048 15.9714 118.401 15.9714ZM116.52 32.4285V17.7346H120.311V32.4285H116.52ZM130.423 21.3787H127.102V27.4914C127.102 28.0008 127.229 28.373 127.484 28.6081C127.739 28.8432 128.111 28.9804 128.601 29.0195C129.091 29.0391 129.698 29.0293 130.423 28.9902V32.4285C127.817 32.7224 125.976 32.4775 124.898 31.6938C123.84 30.9102 123.311 29.5093 123.311 27.4914V21.3787H120.754V17.7346H123.311V14.7665L127.102 13.6204V17.7346H130.423V21.3787ZM142.041 17.7346H145.832V32.4285H142.041V30.6946C140.904 32.1249 139.308 32.84 137.251 32.84C135.291 32.84 133.606 32.0955 132.196 30.6065C130.805 29.0979 130.109 27.2563 130.109 25.0816C130.109 22.9069 130.805 21.0751 132.196 19.5861C133.606 18.0775 135.291 17.3232 137.251 17.3232C139.308 17.3232 140.904 18.0383 142.041 19.4685V17.7346ZM135.046 28.0791C135.811 28.8432 136.78 29.2253 137.956 29.2253C139.131 29.2253 140.101 28.8432 140.865 28.0791C141.649 27.2955 142.041 26.2963 142.041 25.0816C142.041 23.8669 141.649 22.8775 140.865 22.1134C140.101 21.3298 139.131 20.9379 137.956 20.9379C136.78 20.9379 135.811 21.3298 135.046 22.1134C134.282 22.8775 133.9 23.8669 133.9 25.0816C133.9 26.2963 134.282 27.2955 135.046 28.0791ZM147.506 32.4285V10.9755H151.297V32.4285H147.506Z" fill="black"/>
<path d="M82.4031 62.8706C80.3656 62.8706 78.6513 62.42 77.2603 61.5188C75.8692 60.5979 74.8896 59.3539 74.3215 57.7865L77.7892 55.7588C78.5925 57.8551 80.1696 58.9032 82.5207 58.9032C83.657 58.9032 84.4896 58.6975 85.0186 58.2861C85.5476 57.8747 85.8121 57.3555 85.8121 56.7286C85.8121 56.0037 85.4888 55.4453 84.8423 55.0535C84.1958 54.642 83.0399 54.2012 81.3745 53.731C80.4537 53.4567 79.6701 53.1824 79.0235 52.9081C78.3966 52.6339 77.7599 52.2714 77.1133 51.8208C76.4864 51.3506 76.0064 50.7628 75.6733 50.0575C75.3403 49.3522 75.1737 48.5294 75.1737 47.589C75.1737 45.7277 75.8301 44.2486 77.1427 43.1514C78.475 42.0347 80.0717 41.4763 81.9329 41.4763C83.5982 41.4763 85.0578 41.8877 86.3117 42.7106C87.5852 43.5139 88.5745 44.6404 89.2799 46.0902L85.8709 48.0592C85.048 46.2959 83.7354 45.4143 81.9329 45.4143C81.0905 45.4143 80.4243 45.6102 79.9345 46.002C79.4643 46.3743 79.2292 46.8641 79.2292 47.4714C79.2292 48.1179 79.4937 48.6469 80.0227 49.0583C80.5713 49.4502 81.6096 49.8812 83.1378 50.3514C83.7648 50.5473 84.235 50.7041 84.5484 50.8216C84.8815 50.9196 85.3223 51.0861 85.8709 51.3212C86.439 51.5367 86.8701 51.7424 87.1639 51.9383C87.4774 52.1343 87.8301 52.3988 88.2219 52.7318C88.6137 53.0649 88.9076 53.4077 89.1035 53.7604C89.319 54.113 89.4954 54.5441 89.6325 55.0535C89.7892 55.5432 89.8676 56.082 89.8676 56.6698C89.8676 58.5702 89.1721 60.0788 87.7811 61.1955C86.4096 62.3122 84.617 62.8706 82.4031 62.8706ZM102.142 47.7653H105.933V62.4592H102.142V60.7253C101.006 62.1555 99.4092 62.8706 97.3521 62.8706C95.3929 62.8706 93.708 62.1261 92.2974 60.6371C90.9064 59.1286 90.2108 57.2869 90.2108 55.1122C90.2108 52.9375 90.9064 51.1057 92.2974 49.6167C93.708 48.1081 95.3929 47.3539 97.3521 47.3539C99.4092 47.3539 101.006 48.069 102.142 49.4992V47.7653ZM95.148 58.1098C95.9121 58.8739 96.8819 59.2559 98.0574 59.2559C99.2329 59.2559 100.203 58.8739 100.967 58.1098C101.75 57.3261 102.142 56.3269 102.142 55.1122C102.142 53.8975 101.75 52.9081 100.967 52.1441C100.203 51.3604 99.2329 50.9686 98.0574 50.9686C96.8819 50.9686 95.9121 51.3604 95.148 52.1441C94.3839 52.9081 94.0019 53.8975 94.0019 55.1122C94.0019 56.3269 94.3839 57.3261 95.148 58.1098ZM115.778 47.3539C117.384 47.3539 118.706 47.8926 119.745 48.9702C120.803 50.0477 121.332 51.5367 121.332 53.4371V62.4592H117.541V53.9073C117.541 52.9277 117.276 52.1832 116.747 51.6739C116.218 51.1449 115.513 50.8804 114.631 50.8804C113.652 50.8804 112.868 51.1841 112.28 51.7914C111.693 52.3988 111.399 53.3098 111.399 54.5245V62.4592H107.608V41.8877H111.399V49.411C112.32 48.0396 113.779 47.3539 115.778 47.3539ZM133.973 47.7653H137.764V62.4592H133.973V60.7253C132.837 62.1555 131.24 62.8706 129.183 62.8706C127.224 62.8706 125.539 62.1261 124.128 60.6371C122.737 59.1286 122.041 57.2869 122.041 55.1122C122.041 52.9375 122.737 51.1057 124.128 49.6167C125.539 48.1081 127.224 47.3539 129.183 47.3539C131.24 47.3539 132.837 48.069 133.973 49.4992V47.7653ZM126.979 58.1098C127.743 58.8739 128.712 59.2559 129.888 59.2559C131.064 59.2559 132.033 58.8739 132.797 58.1098C133.581 57.3261 133.973 56.3269 133.973 55.1122C133.973 53.8975 133.581 52.9081 132.797 52.1441C132.033 51.3604 131.064 50.9686 129.888 50.9686C128.712 50.9686 127.743 51.3604 126.979 52.1441C126.215 52.9081 125.832 53.8975 125.832 55.1122C125.832 56.3269 126.215 57.3261 126.979 58.1098ZM150.606 47.7653H154.397V62.4592H150.606V60.7253C149.469 62.1555 147.873 62.8706 145.815 62.8706C143.856 62.8706 142.171 62.1261 140.761 60.6371C139.37 59.1286 138.674 57.2869 138.674 55.1122C138.674 52.9375 139.37 51.1057 140.761 49.6167C142.171 48.1081 143.856 47.3539 145.815 47.3539C147.873 47.3539 149.469 48.069 150.606 49.4992V47.7653ZM143.611 58.1098C144.375 58.8739 145.345 59.2559 146.521 59.2559C147.696 59.2559 148.666 58.8739 149.43 58.1098C150.214 57.3261 150.606 56.3269 150.606 55.1122C150.606 53.8975 150.214 52.9081 149.43 52.1441C148.666 51.3604 147.696 50.9686 146.521 50.9686C145.345 50.9686 144.375 51.3604 143.611 52.1441C142.847 52.9081 142.465 53.8975 142.465 55.1122C142.465 56.3269 142.847 57.3261 143.611 58.1098ZM165.652 47.7653H169.707L164.358 62.4592C163.594 64.5751 162.576 66.1032 161.302 67.0437C160.048 68.0037 158.481 68.4347 156.6 68.3367V64.8102C157.619 64.8298 158.422 64.6143 159.01 64.1637C159.617 63.713 160.097 62.9881 160.45 61.989L154.425 47.7653H158.569L162.389 57.6396L165.652 47.7653Z" fill="black"/>
</g>
<defs>
<clipPath id="clip0_552_99">
<rect width="180" height="78.9796" fill="white"/>
</clipPath>
</defs>
</svg>
