<svg width="158" height="70" viewBox="0 0 158 70" fill="none" xmlns="http://www.w3.org/2000/svg">
<g clip-path="url(#clip0_502_595)">
<path d="M52.5163 14.6715C53.4046 14.5904 57.116 16.4855 57.3586 17.4495C57.5328 18.1429 57.4592 19.9249 57.4588 20.7435L57.4607 25.6943C57.4616 27.7751 57.4531 29.852 57.492 31.9322C57.4564 32.9903 56.9223 33.1129 56.0453 32.7374C55.0863 32.3093 54.2355 31.8271 53.2731 31.386C52.2618 30.9224 51.0994 30.5547 50.1334 30.002C49.9013 29.8271 49.8072 29.3513 49.792 29.0967C49.693 27.4448 49.891 25.6388 49.748 24.0035C49.1198 24.2257 48.2848 24.6647 47.6625 24.9724C46.4113 25.5925 45.1643 26.2213 43.9217 26.8587C42.5627 27.5465 40.3144 28.5525 39.0856 29.3114C39.8305 29.7408 40.8176 30.1297 41.6206 30.4645L45.6308 32.1097C47.7082 32.9679 56.6094 36.5366 57.3049 38.2975C57.4132 38.5718 57.4379 38.8993 57.4502 39.1912C57.5466 41.4831 57.4564 43.8044 57.4583 46.1001L57.4716 49.8306C57.4873 53.5179 57.6601 52.8719 54.4178 54.5924L49.8667 57.0111C47.6062 58.209 45.3831 59.4525 43.0749 60.5617C39.8759 62.099 40.5274 62.3813 37.3276 60.8479C36.2318 60.3628 35.1488 59.7657 34.0712 59.238C32.5694 58.5028 31.0721 57.7444 29.6706 56.8298C29.1611 56.4971 29.0032 56.05 28.9655 55.4619C28.8927 54.6707 29.1011 53.8093 29.8493 53.4026C32.3789 52.0262 34.9497 50.7257 37.4744 49.3399C38.0442 49.0271 38.6321 48.7295 39.2062 48.4352C41.0276 47.5021 40.888 49.0034 40.9 50.2487C40.9007 51.0556 40.9119 51.8624 40.9337 52.6693C41.3071 52.5691 41.8645 52.2483 42.2205 52.068C43.0163 51.666 43.8016 51.2274 44.5958 50.8216C45.7202 50.2611 46.8409 49.693 47.9578 49.1173C48.4525 48.8638 49.2236 48.496 49.6538 48.2098C49.755 46.4537 49.6068 44.5239 49.6462 42.7531C49.6524 42.4769 49.3558 42.317 49.1311 42.1983C47.5343 41.3578 45.8223 40.746 44.1692 40.026C39.3117 37.876 34.2267 36.0136 29.6966 33.2156C28.8169 32.6722 29.1828 30.7692 29.1267 29.8686C29.088 29.2481 29.1141 28.2993 29.1801 27.6646C29.3702 26.4712 31.298 25.7657 32.2609 25.2471L34.9869 23.7597L43.0758 19.4475C45.6106 18.1113 48.1344 16.7584 50.6648 15.4146C51.225 15.117 51.8843 14.7331 52.5163 14.6715ZM39.9966 54.2574C39.8371 52.627 40.022 50.8059 39.8931 49.2174C39.2426 49.4058 38.43 49.8961 37.8107 50.2317L35.0854 51.703C33.5808 52.5051 32.0466 53.2554 30.5537 54.0798C30.4227 54.152 30.1396 54.3594 30.0756 54.489C29.8862 54.8729 29.8257 55.7828 30.2082 56.0637C30.5696 56.329 31.0043 56.5702 31.3948 56.7913C32.3857 57.349 33.3928 57.8772 34.4148 58.3756C35.5931 58.9622 36.9828 59.6822 38.1708 60.2138L38.1965 60.2252C38.7131 60.4696 39.4065 60.8298 39.942 60.9561C40.4925 60.8379 42.0399 60.0349 42.5955 59.7624C45.2135 58.4776 47.7744 57.0642 50.3512 55.7016L54.0247 53.7386C54.5536 53.4571 56.1056 52.6816 56.4802 52.3404C56.5638 51.7087 56.5201 50.7836 56.5168 50.1163L56.513 46.6768L56.5178 41.9278C56.5211 40.9975 56.5667 40.045 56.5064 39.1181C56.4912 38.8841 56.4603 38.661 56.3122 38.4697C55.1661 36.9889 46.193 33.3432 43.941 32.4225C42.2315 31.7236 40.1604 30.9901 38.5365 30.1587C38.1977 29.9852 37.2303 29.5182 37.229 29.1236C37.2756 29.0567 37.3329 28.9878 37.4098 28.9576C38.1376 28.671 38.8251 28.3487 39.5262 28.0026L46.2308 24.6432C46.8519 24.3304 50.0804 22.6042 50.5104 22.7887C51.0295 23.3813 50.5331 28.4412 50.8513 29.2896C50.8349 29.2459 56.1612 31.7476 56.4902 31.8695C56.5894 29.1873 56.5111 26.0479 56.5121 23.3298L56.5192 19.9891C56.5197 19.495 56.6227 17.8141 56.2656 17.5076C55.5506 16.8947 53.2318 15.4949 52.3102 15.6552C51.5273 15.9831 50.4785 16.5806 49.7037 16.9866L44.0769 19.9874L35.9691 24.3023L32.7722 26.0303C32.1572 26.362 31.5251 26.6634 30.9234 27.0194C30.6656 27.1719 30.3119 27.3451 30.1882 27.6306C30.1212 27.785 30.0926 27.9587 30.0827 28.126C30.053 28.6274 30.0526 32.0222 30.1651 32.3034C30.3372 32.7336 31.3776 33.1278 31.7813 33.3452C32.9782 33.9898 34.173 34.6429 35.4111 35.2068C36.6528 35.7715 37.9 36.3349 39.1538 36.8727C40.6189 37.5006 49.8439 41.2401 50.3405 41.8533C50.5007 42.0512 50.5751 42.3492 50.6025 42.5975C50.6924 43.4133 50.5992 44.3099 50.5979 45.1338C50.5964 46.1044 50.6643 47.0916 50.6196 48.0593C50.6109 48.2497 50.5889 48.459 50.519 48.6379C50.4318 48.861 50.1273 49.0342 49.9282 49.151C49.4547 49.4277 48.9421 49.6441 48.4547 49.8966L44.4625 51.9502L41.6082 53.423C41.1633 53.656 40.4375 54.0742 39.9966 54.2574Z" fill="white"/>
<path d="M30.7325 7.08057C31.1799 7.10942 31.5912 7.22214 32.0077 7.38423C33.0694 7.79738 34.0626 8.39316 35.0862 8.89018C36.8091 9.7266 38.5937 10.5023 40.2476 11.4698C41.9982 12.4938 43.6743 13.7162 44.2053 15.7941C44.3548 16.3791 44.484 17.3999 44.1278 17.9337C43.8344 18.3733 36.8249 22.1005 36.0794 22.2601C35.9013 22.2982 35.7398 22.2764 35.5898 22.1681C34.9032 21.6725 35.2581 19.2412 35.1383 18.3843C34.5136 17.7372 31.1804 16.1572 30.271 15.8442C29.8403 15.9788 28.7707 16.6281 28.2872 16.882L25.5108 18.3548C25.0277 18.608 24.235 18.9798 23.8074 19.2755C23.7209 20.0517 23.759 22.0567 23.7606 22.9154L23.7783 29.8236L23.8007 40.2971L23.8043 43.8852C23.8056 44.5682 23.7882 45.3622 23.8313 46.0371C24.4399 45.7799 28.9567 43.4528 29.1126 43.1605C29.2219 42.9554 29 41.6968 28.9879 41.3887C28.9496 40.4148 28.8381 35.5082 29.1235 34.8965C29.2045 34.7228 29.3616 34.5063 29.553 34.4489C30.32 34.2201 34.9735 36.8357 35.9617 37.3498C37.3049 38.027 38.8793 38.7299 40.1337 39.5439C40.5133 39.7902 40.8267 40.2568 40.8545 40.7513C40.9459 42.4841 40.9755 44.2744 40.8274 46.0048C40.7095 46.8924 39.8139 47.2967 39.1172 47.6594C37.0431 48.7401 34.9338 49.8122 32.8677 50.8991L27.4543 53.7249C26.3184 54.3192 25.1756 54.9286 24.0219 55.4867C23.7473 55.6196 23.4165 55.7212 23.1137 55.7558C22.7967 55.7924 22.3277 55.6486 22.0331 55.5266C20.5016 54.8944 19.0732 54.07 17.6163 53.285C17.0526 52.9812 16.3273 52.62 15.8202 52.2541C15.58 52.0809 15.4011 51.6082 15.3936 51.3044C15.3778 50.6603 15.3962 49.9949 15.404 49.3447C15.414 48.2792 15.4179 47.2132 15.4157 46.1472L15.4139 34.6107L15.4037 23.3419C15.3815 21.5713 15.3703 19.8007 15.37 18.03C15.3731 17.2722 15.3541 16.5008 15.3943 15.7447C15.4134 15.3834 15.5051 14.9762 15.7531 14.6998C16.2774 14.1153 21.4832 11.4925 22.6241 10.8726L26.4426 8.78956C27.7872 8.06103 29.1729 7.1716 30.7325 7.08057ZM39.8219 46.1031C40.0133 45.1396 39.9854 41.5686 39.8639 40.5757C39.2015 39.8842 36.6369 38.7926 35.676 38.2629C34.8203 37.7911 33.6751 37.2074 32.791 36.757C31.865 36.2899 30.8934 35.8566 29.9909 35.364C29.8503 37.2131 30.0272 39.2795 29.9799 41.1448C29.9621 41.8458 30.2468 43.1847 30.1225 43.7846C29.0934 44.3726 27.8613 44.9721 26.8123 45.5321C26.116 45.9042 23.6208 47.3736 23.0098 47.302C22.9138 47.2379 22.8726 47.2355 22.8605 47.1022C22.794 46.3637 22.82 45.4576 22.8194 44.722L22.8196 39.0674L22.8081 25.3582C22.8109 23.4559 22.7948 21.5492 22.8126 19.6467C22.815 19.3844 22.8303 19.0061 22.9824 18.7926C23.0879 18.6465 23.2201 18.5217 23.372 18.4249C23.6555 18.2461 24.0417 18.0807 24.3434 17.9208C26.0894 16.9955 27.8304 16.0588 29.5707 15.1229C29.7294 15.0377 29.9252 14.9522 30.1042 14.9244C30.2801 14.8983 30.4597 14.9117 30.6299 14.9634C32.0011 15.3911 34.1602 16.6849 35.445 17.3913C36.489 17.9652 36.1126 20.1349 36.1891 21.2197C37.3154 20.7474 38.7231 19.9173 39.812 19.3314C40.9866 18.6994 42.2522 18.0513 43.3865 17.3654C43.4354 15.9892 43.0464 14.9376 42.12 13.9358C41.6287 13.4044 40.6616 12.7693 40.0277 12.4176C37.4165 10.969 34.6672 9.75521 32.0047 8.40142C31.4817 8.13554 30.8635 8.03345 30.2829 8.06568C29.1342 8.28528 27.4786 9.29868 26.4129 9.88194L22.9139 11.7822C22.2448 12.143 16.4452 15.1366 16.4247 15.448C16.2689 17.8131 16.3739 20.6159 16.3773 23.007L16.3756 44.1557L16.3733 49.3737C16.3725 49.7201 16.3327 51.3509 16.3822 51.3913C17.7254 52.49 20.6636 53.8355 22.3271 54.6186C23.2806 55.0676 23.3311 54.7136 24.0199 54.454C25.0406 53.9461 26.0408 53.4013 27.0534 52.8792C29.6769 51.545 32.2846 50.1805 34.8762 48.7861C35.722 48.3343 36.5735 47.8938 37.4305 47.4643C37.9388 47.2075 39.1923 46.5744 39.6227 46.2635C39.692 46.2137 39.7584 46.16 39.8219 46.1031Z" fill="white"/>
<path d="M73.3377 10.5859C75.8142 10.5859 77.8778 11.4544 79.5288 13.1913C81.1969 14.9282 82.031 17.0693 82.031 19.6145C82.031 22.1597 81.1969 24.3008 79.5288 26.0377C77.8778 27.7746 75.8142 28.6431 73.3377 28.6431H66.1665V10.5859H73.3377ZM73.3377 25.238C74.9027 25.238 76.1753 24.7221 77.1555 23.6902C78.1358 22.6412 78.6259 21.2826 78.6259 19.6145C78.6259 17.9464 78.1358 16.5964 77.1555 15.5645C76.1753 14.5155 74.9027 13.991 73.3377 13.991H69.7263V25.238H73.3377ZM84.5046 14.1973C83.9542 14.1973 83.4727 13.9996 83.06 13.604C82.6645 13.1913 82.4667 12.7098 82.4667 12.1595C82.4667 11.6092 82.6645 11.1276 83.06 10.7149C83.4727 10.3022 83.9542 10.0958 84.5046 10.0958C85.0721 10.0958 85.5536 10.3022 85.9491 10.7149C86.3619 11.1276 86.5682 11.6092 86.5682 12.1595C86.5682 12.7098 86.3619 13.1913 85.9491 13.604C85.5536 13.9996 85.0721 14.1973 84.5046 14.1973ZM82.8536 28.6431V15.7451H86.1813V28.6431H82.8536ZM97.5591 15.7451H100.809V28.024C100.809 30.0188 100.147 31.5408 98.8231 32.5898C97.5161 33.6389 95.934 34.1634 94.0767 34.1634C92.6837 34.1634 91.4541 33.8968 90.3878 33.3637C89.3388 32.8306 88.5305 32.0481 87.963 31.0163L90.8006 29.3911C91.4541 30.595 92.5805 31.1969 94.1798 31.1969C95.2289 31.1969 96.0544 30.9217 96.6563 30.3714C97.2582 29.8211 97.5591 29.0386 97.5591 28.024V26.631C96.5789 27.938 95.2031 28.5915 93.4318 28.5915C91.6089 28.5915 90.0783 27.9552 88.8401 26.6826C87.6191 25.3928 87.0086 23.8278 87.0086 21.9877C87.0086 20.1648 87.6277 18.6085 88.8659 17.3187C90.1041 16.0289 91.6261 15.384 93.4318 15.384C95.2031 15.384 96.5789 16.0375 97.5591 17.3445V15.7451ZM91.3423 24.5415C92.0302 25.195 92.8986 25.5218 93.9477 25.5218C94.9967 25.5218 95.8566 25.195 96.5273 24.5415C97.2152 23.8708 97.5591 23.0196 97.5591 21.9877C97.5591 20.9731 97.2152 20.139 96.5273 19.4855C95.8566 18.8148 94.9967 18.4795 93.9477 18.4795C92.8986 18.4795 92.0302 18.8148 91.3423 19.4855C90.6716 20.139 90.3363 20.9731 90.3363 21.9877C90.3363 23.0196 90.6716 23.8708 91.3423 24.5415ZM103.93 14.1973C103.38 14.1973 102.898 13.9996 102.486 13.604C102.09 13.1913 101.892 12.7098 101.892 12.1595C101.892 11.6092 102.09 11.1276 102.486 10.7149C102.898 10.3022 103.38 10.0958 103.93 10.0958C104.498 10.0958 104.979 10.3022 105.375 10.7149C105.787 11.1276 105.994 11.6092 105.994 12.1595C105.994 12.7098 105.787 13.1913 105.375 13.604C104.979 13.9996 104.498 14.1973 103.93 14.1973ZM102.279 28.6431V15.7451H105.607V28.6431H102.279ZM114.482 18.9438H111.568V24.3094C111.568 24.7565 111.679 25.0832 111.903 25.2896C112.126 25.496 112.453 25.6163 112.883 25.6507C113.313 25.6679 113.846 25.6593 114.482 25.6249V28.6431C112.195 28.901 110.579 28.6861 109.633 27.9982C108.704 27.3103 108.24 26.0807 108.24 24.3094V18.9438H105.996V15.7451H108.24V13.1397L111.568 12.1337V15.7451H114.482V18.9438ZM124.68 15.7451H128.008V28.6431H124.68V27.1211C123.683 28.3765 122.281 29.0042 120.476 29.0042C118.756 29.0042 117.277 28.3507 116.039 27.0437C114.818 25.7195 114.207 24.103 114.207 22.1941C114.207 20.2852 114.818 18.6772 116.039 17.3702C117.277 16.0461 118.756 15.384 120.476 15.384C122.281 15.384 123.683 16.0117 124.68 17.2671V15.7451ZM118.541 24.8253C119.212 25.496 120.063 25.8313 121.095 25.8313C122.127 25.8313 122.978 25.496 123.648 24.8253C124.336 24.1374 124.68 23.2603 124.68 22.1941C124.68 21.1279 124.336 20.2594 123.648 19.5887C122.978 18.9008 122.127 18.5569 121.095 18.5569C120.063 18.5569 119.212 18.9008 118.541 19.5887C117.87 20.2594 117.535 21.1279 117.535 22.1941C117.535 23.2603 117.87 24.1374 118.541 24.8253ZM129.478 28.6431V9.81204H132.805V28.6431H129.478Z" fill="white"/>
<path d="M72.3317 55.7645C70.5432 55.7645 69.0384 55.3689 67.8174 54.5779C66.5964 53.7696 65.7365 52.6776 65.2378 51.3018L68.2817 49.5218C68.9868 51.362 70.3712 52.282 72.4349 52.282C73.4323 52.282 74.1632 52.1014 74.6275 51.7403C75.0919 51.3792 75.324 50.9234 75.324 50.3731C75.324 49.7368 75.0403 49.2467 74.4728 48.9027C73.9053 48.5416 72.8906 48.1547 71.4289 47.7419C70.6206 47.5012 69.9327 47.2604 69.3652 47.0196C68.8149 46.7789 68.256 46.4607 67.6884 46.0652C67.1381 45.6525 66.7168 45.1365 66.4244 44.5174C66.1321 43.8983 65.9859 43.1761 65.9859 42.3506C65.9859 40.7168 66.562 39.4184 67.7142 38.4554C68.8837 37.4752 70.2852 36.985 71.919 36.985C73.3807 36.985 74.6619 37.3462 75.7626 38.0685C76.8804 38.7735 77.7489 39.7624 78.368 41.035L75.3756 42.7633C74.6533 41.2156 73.5011 40.4417 71.919 40.4417C71.1795 40.4417 70.5948 40.6137 70.1648 40.9576C69.7521 41.2844 69.5457 41.7143 69.5457 42.2474C69.5457 42.8149 69.7779 43.2792 70.2422 43.6404C70.7238 43.9843 71.6352 44.3627 72.9766 44.7754C73.5269 44.9474 73.9397 45.085 74.2148 45.1881C74.5072 45.2741 74.8941 45.4203 75.3756 45.6267C75.8743 45.8158 76.2527 45.9964 76.5106 46.1684C76.7858 46.3404 77.0954 46.5725 77.4393 46.8649C77.7832 47.1572 78.0412 47.4582 78.2132 47.7677C78.4023 48.0773 78.5571 48.4556 78.6775 48.9027C78.8151 49.3327 78.8839 49.8056 78.8839 50.3215C78.8839 51.9897 78.2734 53.3139 77.0524 54.2941C75.8486 55.2743 74.275 55.7645 72.3317 55.7645ZM89.6583 42.5054H92.986V55.4033H89.6583V53.8814C88.6609 55.1368 87.2593 55.7645 85.4536 55.7645C83.7338 55.7645 82.2549 55.111 81.0167 53.804C79.7957 52.4798 79.1852 50.8632 79.1852 48.9543C79.1852 47.0454 79.7957 45.4375 81.0167 44.1305C82.2549 42.8063 83.7338 42.1442 85.4536 42.1442C87.2593 42.1442 88.6609 42.7719 89.6583 44.0273V42.5054ZM83.5189 51.5855C84.1896 52.2562 85.0408 52.5916 86.0727 52.5916C87.1045 52.5916 87.9558 52.2562 88.6265 51.5855C89.3144 50.8976 89.6583 50.0206 89.6583 48.9543C89.6583 47.8881 89.3144 47.0196 88.6265 46.349C87.9558 45.6611 87.1045 45.3171 86.0727 45.3171C85.0408 45.3171 84.1896 45.6611 83.5189 46.349C82.8482 47.0196 82.5128 47.8881 82.5128 48.9543C82.5128 50.0206 82.8482 50.8976 83.5189 51.5855ZM101.627 42.1442C103.037 42.1442 104.198 42.6171 105.109 43.563C106.038 44.5088 106.502 45.8158 106.502 47.484V55.4033H103.175V47.8967C103.175 47.0368 102.943 46.3833 102.478 45.9362C102.014 45.4719 101.395 45.2397 100.621 45.2397C99.7611 45.2397 99.0732 45.5063 98.5573 46.0394C98.0414 46.5725 97.7834 47.3722 97.7834 48.4384V55.4033H94.4557V37.3462H97.7834V43.9499C98.5917 42.7461 99.8729 42.1442 101.627 42.1442ZM117.599 42.5054H120.926V55.4033H117.599V53.8814C116.601 55.1368 115.199 55.7645 113.394 55.7645C111.674 55.7645 110.195 55.111 108.957 53.804C107.736 52.4798 107.125 50.8632 107.125 48.9543C107.125 47.0454 107.736 45.4375 108.957 44.1305C110.195 42.8063 111.674 42.1442 113.394 42.1442C115.199 42.1442 116.601 42.7719 117.599 44.0273V42.5054ZM111.459 51.5855C112.13 52.2562 112.981 52.5916 114.013 52.5916C115.045 52.5916 115.896 52.2562 116.567 51.5855C117.255 50.8976 117.599 50.0206 117.599 48.9543C117.599 47.8881 117.255 47.0196 116.567 46.349C115.896 45.6611 115.045 45.3171 114.013 45.3171C112.981 45.3171 112.13 45.6611 111.459 46.349C110.788 47.0196 110.453 47.8881 110.453 48.9543C110.453 50.0206 110.788 50.8976 111.459 51.5855ZM132.198 42.5054H135.526V55.4033H132.198V53.8814C131.201 55.1368 129.799 55.7645 127.994 55.7645C126.274 55.7645 124.795 55.111 123.557 53.804C122.336 52.4798 121.725 50.8632 121.725 48.9543C121.725 47.0454 122.336 45.4375 123.557 44.1305C124.795 42.8063 126.274 42.1442 127.994 42.1442C129.799 42.1442 131.201 42.7719 132.198 44.0273V42.5054ZM126.059 51.5855C126.73 52.2562 127.581 52.5916 128.613 52.5916C129.645 52.5916 130.496 52.2562 131.167 51.5855C131.854 50.8976 132.198 50.0206 132.198 48.9543C132.198 47.8881 131.854 47.0196 131.167 46.349C130.496 45.6611 129.645 45.3171 128.613 45.3171C127.581 45.3171 126.73 45.6611 126.059 46.349C125.388 47.0196 125.053 47.8881 125.053 48.9543C125.053 50.0206 125.388 50.8976 126.059 51.5855ZM145.405 42.5054H148.965L144.27 55.4033C143.6 57.2606 142.705 58.602 141.588 59.4275C140.487 60.2702 139.111 60.6485 137.46 60.5625V57.467C138.354 57.4842 139.06 57.295 139.575 56.8995C140.109 56.5039 140.53 55.8676 140.839 54.9906L135.551 42.5054H139.188L142.542 51.1728L145.405 42.5054Z" fill="white"/>
</g>
<defs>
<clipPath id="clip0_502_595">
<rect width="158" height="69.3265" fill="white"/>
</clipPath>
</defs>
</svg>
