<svg width="37" height="62" viewBox="0 0 37 62" fill="none" xmlns="http://www.w3.org/2000/svg">
<path d="M19.5028 0C20.0707 0.0366293 20.5928 0.179713 21.1215 0.385452C22.4691 0.90989 23.7298 1.66615 25.0293 2.29704C27.2162 3.35875 29.4815 4.34334 31.5809 5.57145C33.803 6.87131 35.9306 8.42299 36.6046 11.0605C36.7944 11.8031 36.9583 13.0989 36.5062 13.7765C36.1338 14.3345 27.2363 19.0657 26.2899 19.2682C26.0639 19.3165 25.8588 19.2889 25.6684 19.1514C24.7969 18.5223 25.2474 15.4361 25.0954 14.3484C24.3023 13.527 20.0713 11.5214 18.9171 11.1241C18.3703 11.295 17.0126 12.1192 16.3989 12.4416L12.8746 14.311C12.2614 14.6325 11.2552 15.1044 10.7124 15.4797C10.6026 16.465 10.6509 19.01 10.653 20.1L10.6755 28.869L10.7038 42.1636L10.7084 46.7182C10.7102 47.5851 10.688 48.593 10.7427 49.4497C11.5153 49.1232 17.2486 46.1693 17.4465 45.7982C17.5853 45.538 17.3037 43.9402 17.2883 43.5493C17.2397 42.313 17.0981 36.0848 17.4605 35.3083C17.5632 35.0878 17.7627 34.813 18.0056 34.7401C18.9792 34.4498 24.8861 37.7699 26.1406 38.4224C27.8455 39.2821 29.844 40.1743 31.4362 41.2075C31.9181 41.5202 32.3159 42.1124 32.3512 42.7402C32.4672 44.9397 32.5049 47.2122 32.3168 49.4087C32.1671 50.5353 31.0304 51.0486 30.146 51.5089C27.5132 52.8807 24.8357 54.2416 22.2131 55.6213L15.3415 59.2083C13.8998 59.9626 12.4492 60.7361 10.9847 61.4446C10.6361 61.6133 10.2162 61.7422 9.83184 61.7862C9.42944 61.8326 8.83412 61.65 8.46023 61.4952C6.5162 60.6927 4.70295 59.6463 2.85366 58.6498C2.13818 58.2642 1.21754 57.8058 0.573772 57.3413C0.268882 57.1214 0.0417974 56.5213 0.0323356 56.1358C0.0122667 55.3182 0.0355896 54.4736 0.0455336 53.6482C0.0581897 52.2957 0.0631312 50.9426 0.0602987 49.5895L0.0580687 34.9456L0.0450518 20.6414C0.0169072 18.3939 0.00268423 16.1464 0.00232263 13.8987C0.00630024 12.9368 -0.0178667 11.9576 0.0331191 10.9978C0.0574668 10.5393 0.173842 10.0224 0.488615 9.67147C1.15414 8.92954 7.76209 5.60037 9.2103 4.81344L14.0574 2.16932C15.7642 1.24455 17.5231 0.115551 19.5028 0ZM31.0404 49.5334C31.2834 48.3105 31.248 43.7776 31.0938 42.5172C30.2529 41.6395 26.9976 40.2538 25.7778 39.5815C24.6917 38.9826 23.238 38.2416 22.1157 37.6699C20.9404 37.0771 19.707 36.527 18.5615 35.9017C18.383 38.2488 18.6075 40.8719 18.5474 43.2396C18.5248 44.1294 18.8863 45.8289 18.7285 46.5905C17.4222 47.3369 15.8582 48.0978 14.5266 48.8087C13.6429 49.281 10.4755 51.1462 9.69997 51.0552C9.57811 50.9739 9.52574 50.9709 9.51049 50.8016C9.426 49.8642 9.45897 48.7141 9.4583 47.7803L9.45848 40.6026L9.44396 23.2008C9.44752 20.7862 9.42702 18.3658 9.44963 15.9509C9.4527 15.6179 9.47216 15.1378 9.6652 14.8667C9.79911 14.6813 9.96689 14.5229 10.1597 14.4C10.5196 14.173 11.0098 13.9631 11.3928 13.7602C13.609 12.5856 15.819 11.3966 18.0281 10.2086C18.2295 10.1004 18.4781 9.99191 18.7052 9.95655C18.9286 9.92353 19.1565 9.94046 19.3726 10.0061C21.1131 10.5491 23.8538 12.1914 25.4847 13.0879C26.8099 13.8164 26.3321 16.5705 26.4292 17.9475C27.8588 17.3481 29.6458 16.2944 31.0279 15.5507C32.5188 14.7484 34.1254 13.9258 35.5652 13.0551C35.6273 11.3082 35.1335 9.97342 33.9576 8.70175C33.3339 8.02724 32.1063 7.22104 31.3017 6.77462C27.9871 4.9358 24.4973 3.39508 21.1176 1.67663C20.4539 1.33914 19.6691 1.20955 18.9321 1.25046C17.474 1.52921 15.3724 2.81558 14.0197 3.55594L9.57817 5.96799C8.72889 6.42604 1.36712 10.2259 1.34109 10.6213C1.14341 13.6233 1.27666 17.1811 1.28094 20.2163L1.27883 47.0616L1.27588 53.685C1.27492 54.1248 1.22429 56.1948 1.28721 56.246C2.99222 57.6407 6.72177 59.3487 8.8334 60.3427C10.0437 60.9126 10.1079 60.4632 10.9821 60.1337C12.2777 59.489 13.5473 58.7974 14.8328 58.1347C18.1628 56.4412 21.473 54.7091 24.7627 52.9391C25.8362 52.3656 26.9171 51.8065 28.0049 51.2613C28.6501 50.9354 30.2413 50.1317 30.7877 49.7371C30.8756 49.6738 30.9599 49.6057 31.0404 49.5334Z" fill="black"/>
</svg>
