<svg width="37" height="60" viewBox="0 0 37 60" fill="none" xmlns="http://www.w3.org/2000/svg">
<path d="M29.9116 0.00320199C31.0392 -0.0997577 35.7502 2.30585 36.0582 3.52955C36.2794 4.40962 36.1859 6.67172 36.1853 7.71078L36.1878 13.9951C36.189 16.6363 36.1781 19.2726 36.2275 21.9133C36.1823 23.2564 35.5043 23.412 34.3912 22.9353C33.1738 22.3919 32.0938 21.7798 30.8722 21.2198C29.5885 20.6314 28.1131 20.1647 26.8868 19.4631C26.5923 19.2411 26.4728 18.6372 26.4535 18.314C26.3278 16.2172 26.5791 13.9247 26.3977 11.8489C25.6003 12.1309 24.5403 12.6882 23.7504 13.0787C22.1622 13.8659 20.5793 14.664 19.002 15.4731C17.2769 16.3462 14.423 17.6232 12.8632 18.5865C13.8088 19.1316 15.0618 19.6252 16.0811 20.0502L21.1714 22.1385C23.8084 23.2279 35.1072 27.7579 35.9901 29.993C36.1275 30.3412 36.1588 30.7569 36.1745 31.1274C36.2968 34.0367 36.1823 36.9833 36.1847 39.8974L36.2016 44.6327C36.2215 49.3131 36.4409 48.4932 32.3253 50.6771L26.5483 53.7472C23.679 55.2678 20.857 56.8462 17.927 58.2542C13.8664 60.2055 14.6934 60.564 10.6317 58.6175C9.24073 58.0018 7.8661 57.2439 6.49823 56.5739C4.59187 55.6407 2.69129 54.678 0.912218 53.5171C0.265555 53.0947 0.065108 52.5272 0.0173164 51.7808C-0.0751931 50.7765 0.189439 49.683 1.13912 49.1667C4.35014 47.4196 7.61328 45.7689 10.8181 44.0097C11.5414 43.6127 12.2876 43.235 13.0164 42.8614C15.3283 41.677 15.1512 43.5826 15.1664 45.1634C15.1673 46.1876 15.1815 47.2118 15.2092 48.2359C15.6832 48.1088 16.3907 47.7016 16.8426 47.4726C17.8527 46.9623 18.8495 46.4057 19.8576 45.8906C21.2849 45.1791 22.7075 44.4579 24.1253 43.7272C24.7532 43.4054 25.732 42.9385 26.278 42.5753C26.4065 40.3462 26.2184 37.8966 26.2684 35.6488C26.2763 35.2982 25.8998 35.0952 25.6146 34.9446C23.5877 33.8776 21.4146 33.101 19.3162 32.1871C13.1503 29.458 6.6956 27.094 0.945305 23.5422C-0.171378 22.8525 0.293096 20.437 0.221861 19.2938C0.172743 18.5061 0.20583 17.3018 0.289661 16.4961C0.530969 14.9813 2.97798 14.0857 4.20025 13.4274L7.66059 11.5394L17.9282 6.06565C21.1458 4.36962 24.3494 2.6522 27.5614 0.946466C28.2725 0.568787 29.1094 0.081461 29.9116 0.00320199ZM14.0196 50.2518C13.8171 48.1823 14.0519 45.8707 13.8883 43.8543C13.0626 44.0935 12.031 44.7158 11.245 45.1417L7.78559 47.0093C5.87573 48.0275 3.92827 48.98 2.03324 50.0264C1.86691 50.118 1.50759 50.3813 1.42635 50.5458C1.18589 51.0331 1.10917 52.188 1.59474 52.5447C2.05343 52.8815 2.60524 53.1875 3.10087 53.4683C4.35876 54.1762 5.63707 54.8467 6.93432 55.4793C8.43008 56.2239 10.1941 57.1378 11.7021 57.8126L11.7346 57.827C12.3904 58.1373 13.2706 58.5946 13.9504 58.7548C14.6491 58.6048 16.6133 57.5855 17.3185 57.2396C20.6417 55.6088 23.8924 53.8147 27.1633 52.085L31.8263 49.5933C32.4976 49.236 34.4677 48.2516 34.9432 47.8184C35.0493 47.0166 34.9939 45.8424 34.9897 44.9953L34.9848 40.6293L34.9909 34.6012C34.9951 33.4203 35.0529 32.2112 34.9764 31.0346C34.9571 30.7376 34.9179 30.4545 34.7299 30.2117C33.2751 28.332 21.8851 23.7043 19.0265 22.5356C16.8566 21.6485 14.2276 20.7174 12.1662 19.6619C11.7363 19.4418 10.5083 18.849 10.5066 18.3481C10.5658 18.2632 10.6385 18.1757 10.7361 18.1374C11.66 17.7736 12.5326 17.3645 13.4225 16.9251L21.933 12.6609C22.7214 12.2638 26.8196 10.0726 27.3654 10.3069C28.0243 11.059 27.3942 17.4819 27.7981 18.5588C27.7773 18.5034 34.5383 21.6788 34.9559 21.8336C35.0819 18.429 34.9824 14.4439 34.9836 10.9937L34.9927 6.75318C34.9933 6.12602 35.124 3.9923 34.6708 3.6033C33.7632 2.82522 30.8198 1.0484 29.65 1.25185C28.6562 1.66815 27.3249 2.42652 26.3414 2.94192L19.199 6.75095L8.90727 12.2282L4.84933 14.4215C4.06863 14.8426 3.2663 15.2252 2.50254 15.6771C2.17535 15.8707 1.72636 16.0906 1.56925 16.4529C1.48427 16.6489 1.44799 16.8694 1.4354 17.0817C1.39767 17.7183 1.39713 22.0274 1.53996 22.3844C1.75849 22.9304 3.07905 23.4308 3.5915 23.7068C5.11083 24.5251 6.62744 25.3541 8.19908 26.0698C9.77524 26.7867 11.3583 27.5018 12.9498 28.1844C14.8096 28.9814 26.5194 33.7282 27.1497 34.5066C27.3531 34.7578 27.4475 35.1361 27.4823 35.4512C27.5964 36.4868 27.4781 37.6249 27.4764 38.6707C27.4745 39.9028 27.5607 41.1559 27.504 42.3843C27.4929 42.6259 27.465 42.8916 27.3763 43.1187C27.2657 43.4018 26.8791 43.6217 26.6264 43.7699C26.0253 44.1212 25.3747 44.3959 24.756 44.7164L19.6885 47.3232L16.0654 49.1926C15.5006 49.4884 14.5793 50.0192 14.0196 50.2518Z" fill="black"/>
</svg>
